<svg width="20" height="20" viewBox="0 0 20 20" fill="none" xmlns="http://www.w3.org/2000/svg">
<g clip-path="url(#clip0_2123_1964)">
<path d="M19.1305 13.2365C18.695 12.7138 18.2002 12.2453 17.7216 11.7923C17.5515 11.6311 17.3755 11.4645 17.2059 11.2989C16.719 10.8228 16.7012 10.644 17.0868 10.1032C17.3535 9.73045 17.6363 9.3572 17.9098 8.99624C18.1578 8.66874 18.4144 8.33007 18.6602 7.99029L18.7107 7.92043C19.1806 7.27023 19.6666 6.59789 19.9252 5.78683C19.9924 5.57285 20.0629 5.25796 19.9017 4.99465C19.7405 4.73156 19.428 4.6513 19.2068 4.61381C19.0974 4.59526 18.9888 4.59272 18.888 4.59272L15.8106 4.59052L15.7852 4.5903C15.3199 4.5903 15.0063 4.80957 14.8267 5.26071C14.6551 5.69176 14.4667 6.15077 14.2517 6.58721C13.8237 7.4563 13.2803 8.45729 12.4939 9.29213L12.4606 9.32764C12.3678 9.42745 12.2626 9.54047 12.1857 9.54047C12.1739 9.54047 12.161 9.53821 12.1465 9.53364C11.9836 9.47017 11.8743 9.07584 11.8792 8.89241C11.8793 8.88988 11.8794 8.88734 11.8794 8.88481L11.8772 5.32798C11.8772 5.31565 11.8763 5.30343 11.8747 5.29121C11.7964 4.71301 11.623 4.35309 10.9678 4.22476C10.9504 4.2213 10.9326 4.21959 10.9149 4.21959H7.71504C7.19371 4.21959 6.90645 4.43148 6.63643 4.74863C6.56354 4.83341 6.41182 5.0099 6.48702 5.22399C6.56332 5.44128 6.81099 5.48774 6.89164 5.50282C7.29197 5.57901 7.51762 5.82388 7.58154 6.25173C7.69313 6.9947 7.70683 7.78771 7.6247 8.74741C7.6018 9.01413 7.55649 9.22013 7.48184 9.39612C7.4645 9.43719 7.40301 9.57124 7.34031 9.5713C7.32038 9.5713 7.26274 9.56348 7.15776 9.49114C6.90953 9.32109 6.72792 9.07843 6.5162 8.77867C5.79591 7.76073 5.1914 6.63935 4.66787 5.34967C4.4737 4.87491 4.11108 4.60913 3.64635 4.60131C3.13569 4.59355 2.67272 4.58981 2.23115 4.58981C1.74869 4.58981 1.3014 4.59426 0.864629 4.60335C0.490725 4.60995 0.232096 4.72204 0.0960105 4.93674C-0.0402952 5.1516 -0.031432 5.43384 0.12238 5.77549C1.35365 8.51278 2.47002 10.503 3.74224 12.229C4.63368 13.4367 5.52782 14.2726 6.55583 14.8595C7.6389 15.4791 8.85266 15.7804 10.2664 15.7804C10.4266 15.7804 10.5923 15.7765 10.7594 15.7686C11.5809 15.7286 11.8856 15.4313 11.9242 14.6315C11.9425 14.2227 11.9872 13.794 12.1881 13.4284C12.315 13.1981 12.4332 13.1981 12.4721 13.1981C12.547 13.1981 12.6398 13.2326 12.7395 13.2971C12.9183 13.4138 13.0716 13.5702 13.1973 13.7068C13.3156 13.8365 13.4326 13.9676 13.5496 14.0987C13.8023 14.3817 14.0636 14.6743 14.3365 14.9518C14.934 15.5597 15.5921 15.827 16.348 15.769H19.1695C19.1755 15.769 19.1815 15.7687 19.1875 15.7684C19.4687 15.7498 19.7121 15.5939 19.8555 15.3405C20.0332 15.0267 20.0296 14.6263 19.846 14.2692C19.6376 13.8655 19.3673 13.5205 19.1305 13.2365Z" fill="black"/>
</g>
<defs>
<clipPath id="clip0_2123_1964">
<rect width="20" height="20" fill="white"/>
</clipPath>
</defs>
</svg>
